<?xml version="1.0" encoding="UTF-8"?><svg id="a" xmlns="http://www.w3.org/2000/svg" viewBox="0 0 24 24"><path d="M4.61,19.62c-.36-.24-.67-.54-1.04-.99-.19-.23-.37-.46-.57-.7-.55-.7-.91-1.01-1.28-1.14-.63-.23-.95-.91-.72-1.54s.91-.95,1.54-.72h0c.9,.33,1.52,.88,2.35,1.91-.11-.14,.41,.52,.52,.65,.23,.28,.4,.43,.53,.53,.24,.17,.71,.24,1.38,.17,.02-.46,.11-.9,.24-1.31-3.58-.88-5.6-3.18-5.6-7.7,0-1.49,.45-2.84,1.28-3.96-.26-1.07-.22-2.37,.36-3.84,.13-.34,.41-.59,.76-.7,.1-.02,.16-.05,.25-.06,.96-.14,2.34,.2,4.1,1.32,1.06-.25,2.14-.37,3.24-.37s2.19,.12,3.23,.37C16.98,.42,18.34,.06,19.31,.21c.1,.01,.19,.04,.26,.06,.34,.11,.61,.37,.75,.7,.59,1.47,.63,2.77,.36,3.84,.83,1.13,1.28,2.47,1.28,3.96,0,4.53-2.01,6.81-5.59,7.69,.14,.51,.23,1.06,.23,1.66,0,1.1,0,2.18-.01,3.27,.65,.14,1.06,.78,.91,1.43-.1,.47-.47,.83-.94,.93-1.37,.28-2.38-.64-2.38-1.83v-1.38c.01-.85,.01-1.61,.01-2.41,0-.84-.22-1.38-.52-1.64-.79-.69-.4-1.99,.65-2.11,3.58-.4,5.22-1.78,5.22-5.61,0-1.14-.37-2.09-1.1-2.89-.31-.34-.4-.83-.23-1.26,.2-.49,.29-1.16,.12-1.94h-.01c-.59,.17-1.34,.53-2.24,1.14-.29,.2-.66,.26-1,.17-1.01-.28-2.07-.42-3.12-.42s-2.13,.14-3.12,.42c-.34,.1-.71,.04-1-.16-.9-.61-1.65-.98-2.25-1.14-.17,.78-.08,1.43,.11,1.94,.17,.43,.08,.91-.23,1.26-.72,.78-1.1,1.76-1.1,2.89,0,3.82,1.65,5.21,5.2,5.61,1.04,.12,1.44,1.42,.65,2.11-.23,.2-.52,.88-.52,1.64v3.79c0,1.19-1.01,2.08-2.36,1.84-.65-.12-1.1-.73-.98-1.4,.08-.48,.46-.87,.93-.96v-1.19c-1.1,.07-2-.11-2.71-.59v-.02Z"/></svg>